<svg xmlns="http://www.w3.org/2000/svg" role="img" viewBox="-7.94 -7.69 438.88 83.63"><g clip-path="url(#clip0_27_829)"><path fill="#4AC400" d="M84.804 54.247H129.804V59.271H84.804zM378.187 54.247H423.187V59.271H378.187z"/><path d="M100.829 26.3671C102.449 26.3992 104.053 26.0458 105.509 25.336 106.965 24.6262 108.231 23.5803 109.204 22.2847L113.705 26.8905C110.146 30.8682 106.063 32.8571 101.248 32.8571 99.0752 32.94 96.9079 32.5841 94.8756 31.8108 92.8433 31.0374 90.9878 29.8624 89.4197 28.356 87.8927 26.885 86.6932 25.1085 85.8996 23.1424 85.1059 21.1764 84.736 19.065 84.8139 16.9462 84.7543 14.8048 85.1424 12.6745 85.9536 10.6917 86.7647 8.70895 87.9809 6.9174 89.5243 5.43176 91.1844 3.86546 93.1446 2.65177 95.2867 1.86392 97.4288 1.07607 99.7083.730412 101.988.847802 104.267.965193 106.499 1.5432 108.549 2.54694 110.598 3.55067 112.424 4.95933 113.914 6.68788L109.622 11.6077C108.677 10.3347 107.445 9.30188 106.027 8.59271 104.608 7.88355 103.043 7.5179 101.457 7.5253 98.9857 7.47774 96.5892 8.37643 94.7582 10.0375 93.808 10.9104 93.062 11.9821 92.5735 13.1762 92.085 14.3704 91.8659 15.6577 91.9319 16.9462 91.8657 18.232 92.0638 19.5177 92.5139 20.7239 92.964 21.9302 93.6565 23.0314 94.5488 23.9595 96.2711 25.5136 98.5097 26.3717 100.829 26.3671V26.3671zM119.147 32.4383V1.34937H126.056V26.2624H139.35V32.4383H119.147zM169.707 28.1467C166.561 31.1055 162.406 32.7529 158.087 32.7529 153.769 32.7529 149.614 31.1055 146.468 28.1467 144.934 26.6758 143.724 24.9017 142.913 22.9374 142.102 20.9731 141.708 18.8615 141.758 16.7369 141.699 14.6111 142.087 12.4966 142.899 10.5308 143.711 8.56507 144.927 6.7921 146.468 5.32717 149.614 2.36836 153.769.720947 158.087.720947 162.406.720947 166.561 2.36836 169.707 5.32717 171.24 6.79806 172.451 8.5721 173.262 10.5364 174.073 12.5008 174.466 14.6124 174.417 16.7369 174.476 18.8628 174.087 20.9773 173.276 22.943 172.464 24.9088 171.248 26.6817 169.707 28.1467V28.1467zM167.299 16.7369C167.318 14.1066 166.347 11.5653 164.577 9.61891 163.744 8.69656 162.727 7.95926 161.591 7.45462 160.455 6.94999 159.226 6.68925 157.983 6.68925 156.74 6.68925 155.511 6.94999 154.375 7.45462 153.239 7.95926 152.221 8.69656 151.388 9.61891 149.599 11.5529 148.624 14.1024 148.667 16.7369 148.647 19.3673 149.619 21.9085 151.388 23.8549 152.221 24.7773 153.239 25.5146 154.375 26.0192 155.511 26.5239 156.74 26.7846 157.983 26.7846 159.226 26.7846 160.455 26.5239 161.591 26.0192 162.727 25.5146 163.744 24.7773 164.577 23.8549 165.484 22.9108 166.192 21.7943 166.659 20.5717 167.127 19.3491 167.344 18.0451 167.299 16.7369V16.7369zM188.548 24.483C189.101 25.1989 189.817 25.772 190.636 26.1545 191.456 26.5369 192.355 26.7175 193.259 26.6812 194.149 26.7285 195.037 26.5521 195.841 26.1681 196.646 25.7841 197.341 25.2048 197.864 24.483 199.067 22.7732 199.657 20.7079 199.539 18.6211V1.4541H206.448V18.8304C206.448 23.3315 205.192 26.7859 202.68 29.1934 201.415 30.4063 199.921 31.3549 198.286 31.984 196.65 32.613 194.906 32.9098 193.154 32.8571 191.387 32.9099 189.626 32.6134 187.974 31.9847 186.321 31.3561 184.809 30.4075 183.524 29.1934 181.011 26.7859 179.755 23.3315 179.755 18.8304V1.4541H186.664V18.6211C186.662 20.7243 187.321 22.7749 188.548 24.483V24.483zM237.432 5.43176C240.363 8.15335 241.933 11.9217 241.933 16.7368 241.933 21.552 240.468 25.425 237.642 28.2513 234.815 31.0775 230.314 32.4383 224.452 32.4383H213.671V1.34937H224.662C230.21 1.34937 234.501 2.71016 237.432 5.43176zM232.408 23.9595C234.083 22.3894 234.92 19.9818 234.92 16.9462 234.92 13.9106 234.083 11.503 232.408 9.93286 230.733 8.3627 228.116 7.42061 224.557 7.42061H220.684V26.3671H225.08C227.738 26.5087 230.352 25.6497 232.408 23.9595V23.9595zM281.396 1.34937H288.305V32.4383H281.396L266.532 12.9685V32.4383H259.624V1.34937H266.113L281.396 21.3426V1.34937zM318.138 32.4383L315.207 25.739H302.122L299.191 32.4383H291.759L305.158 1.34937H311.857L325.256 32.4383H318.138zM308.822 10.6656L304.949 19.6678H312.695L308.822 10.6656zM340.12 7.42067V32.5431H333.211V7.42067H324.418V1.4541H349.017V7.42067H340.12zM353.937 1.34937H360.846V32.4383H353.937V1.34937zM380.002 21.1333L387.957 1.34937H395.494L383.037 32.4383H377.176L364.719 1.34937H372.256L380.002 21.1333zM421.559 1.34937V7.52529H406.066V13.9106H419.988V19.8771H406.066V26.3671H422.082V32.543H399.158V1.45404H421.559V1.34937zM10.0744 45.3447H.548828V67.7141H22.845V58.0943H10.0744V45.3447zM58.0164 45.4494V58.0943H45.2458V67.7141H67.542V45.3447H57.9117L58.0164 45.4494zM.548828 23.0904H10.1791L10.0744 22.9857V10.3407H22.845V.720947H.548828V23.0904zM45.2458.720947V10.3407H58.0164V23.0904H67.542V.720947H45.2458z"/><path d="M43.9897 23.0904L31.2191 10.3407H45.2458V.720947H22.845V10.3407L35.6155 23.0904H43.9897zM32.4752 45.3447H24.1011L34.6734 55.9066 36.767 58.0943H22.845V67.7141H45.2458V57.9897L38.8605 51.7091 32.4752 45.3447zM58.0164 23.0903V36.9914L55.8182 34.7932 45.2458 24.2313V32.6997L51.5265 38.9803 57.9117 45.3551H67.542V23.0903H58.0164zM22.845 35.7353L10.1791 23.0903H.548828V45.3446H10.0744V31.4435L22.845 44.2036V35.7353z" opacity=".65"/><path d="M146.023 65.6567C150.294 65.6567 152.932 63.4962 152.932 60.0293C152.932 56.7885 150.444 55.6831 146.576 54.8541C144.013 54.3014 143.184 53.9496 143.184 52.8945C143.184 52.0403 143.963 51.3872 145.345 51.3872C146.952 51.3872 148.686 52.0152 150.269 53.2211L152.454 50.1562C150.62 48.6488 148.359 47.7947 145.445 47.7947C141.526 47.7947 138.863 50.0054 138.863 53.3216C138.863 56.7885 141.601 57.7934 145.294 58.6224C147.807 59.2254 148.611 59.4515 148.611 60.4815C148.611 61.411 147.782 62.0642 146.174 62.0642C144.063 62.0642 142.179 61.2603 140.496 59.8785L138.059 62.7676C140.169 64.6518 142.958 65.6567 146.023 65.6567ZM164.112 65.6567C168.835 65.6567 172.126 62.4159 172.126 57.7934V48.0961H167.855V57.5924C167.855 60.0293 166.298 61.7627 164.112 61.7627C161.952 61.7627 160.394 60.0293 160.394 57.5924V48.0961H156.098V57.7934C156.098 62.4159 159.414 65.6567 164.112 65.6567ZM183.043 65.6567C187.314 65.6567 189.952 63.4962 189.952 60.0293C189.952 56.7885 187.465 55.6831 183.596 54.8541C181.033 54.3014 180.204 53.9496 180.204 52.8945C180.204 52.0403 180.983 51.3872 182.365 51.3872C183.973 51.3872 185.706 52.0152 187.289 53.2211L189.475 50.1562C187.641 48.6488 185.38 47.7947 182.465 47.7947C178.546 47.7947 175.883 50.0054 175.883 53.3216C175.883 56.7885 178.622 57.7934 182.315 58.6224C184.827 59.2254 185.631 59.4515 185.631 60.4815C185.631 61.411 184.802 62.0642 183.194 62.0642C181.084 62.0642 179.199 61.2603 177.516 59.8785L175.079 62.7676C177.19 64.6518 179.978 65.6567 183.043 65.6567ZM197.565 65.3552H201.861V51.9399H207.111V48.0961H192.339V51.9399H197.565V65.3552ZM222.769 65.3552H227.592L220.759 48.0961H215.936L209.102 65.3552H213.926L214.981 62.7174H221.714L222.769 65.3552ZM216.262 59.4766L218.347 54.1758L220.433 59.4766H216.262ZM230.736 65.3552H235.032V48.0961H230.736V65.3552ZM239.555 65.3552H243.851V55.1555L251.388 65.3552H255.659V48.0961H251.388V58.2958L243.851 48.0961H239.555V65.3552ZM272.485 65.3552H277.308L270.475 48.0961H265.652L258.818 65.3552H263.642L264.697 62.7174H271.43L272.485 65.3552ZM265.978 59.4766L268.063 54.1758L270.148 59.4766H265.978ZM280.452 65.3552H289.823C293.239 65.3552 295.676 63.4459 295.676 60.6825C295.676 58.7983 294.495 57.1653 292.486 56.286C293.993 55.5324 294.897 54.1506 294.897 52.4423C294.897 49.9301 292.661 48.0961 289.471 48.0961H280.452V65.3552ZM284.723 54.9294V51.7389H288.441C289.622 51.7389 290.476 52.3921 290.476 53.3216C290.476 54.2511 289.622 54.9294 288.441 54.9294H284.723ZM284.723 61.7125V58.2456H289.069C290.35 58.2456 291.255 58.9741 291.255 59.979C291.255 60.9839 290.35 61.7125 289.069 61.7125H284.723ZM299.232 65.3552H303.528V48.0961H299.232V65.3552ZM312.347 61.5115V48.0961H308.051V65.3552H320.663V61.5115H312.347ZM324.034 65.3552H328.33V48.0961H324.034V65.3552ZM336.924 65.3552H341.22V51.9399H346.47V48.0961H331.698V51.9399H336.924V65.3552ZM355.119 65.3552H359.44V59.4012L366.122 48.0961H361.349L357.279 55.3816L353.385 48.0961H348.436L355.119 59.4012V65.3552Z"/></g><defs><clipPath id="clip0_27_829"><path fill="#fff" d="M0 0H422.161V66.993H0z" transform="translate(.549 .72)"/></clipPath></defs></svg>